+ filenameToUse=/home/horvathandras/vatic/vatic/public/videouploads/DJI_0691_valto_muvelonyom_vaskut_20180608_napos_kalaszos_T4.avi
+ filenameNoDot=DJI_0691_valto_muvelonyom_vaskut_20180608_napos_kalaszos_T4
+ FullUploadPath=/home/horvathandras/vatic/vatic/public/videouploads/DJI_0691_valto_muvelonyom_vaskut_20180608_napos_kalaszos_T4.avi
+ VideoDataDir=/home/horvathandras/vatic/vatic/videos
+ AvailableObjectTypes='PozitívROI NegatívROI Túrás ~Friss ~1-2Hetes ~Régebbi ~Egyéb1 ~Egyéb2 ~Egyéb3 Rágás ~Friss ~1-2Hetes ~Régebbi ~Egyéb1 ~Egyéb2 ~Egyéb3 Törés ~Friss ~1-2Hetes ~Régebbi ~Egyéb1 ~Egyéb2 ~Egyéb3 Taposás ~Friss ~1-2Hetes ~Régebbi ~Egyéb1 ~Egyéb2 ~Egyéb3 EgészségesNövény Egyéb1 Egyéb2 Egyéb3 Egyéb4 Egyéb5 Bizonytalan Művelőút Gktaposás Vetőhiba Széldöntés Jégkár Belvíz Aszály Erózió EgyszikűGyom KétszikűGyom EgyébNövvédelmiPR'
++ dirname /home/horvathandras/vatic/vatic/vatic_publisher.sh
+ cd /home/horvathandras/vatic/vatic
+ touch /home/horvathandras/vatic/vatic/public/videouploads/DJI_0691_valto_muvelonyom_vaskut_20180608_napos_kalaszos_T4.avi
+ chmod 744 /home/horvathandras/vatic/vatic/public/videouploads/DJI_0691_valto_muvelonyom_vaskut_20180608_napos_kalaszos_T4.avi
+ mkdir /home/horvathandras/vatic/vatic/videos/DJI_0691_valto_muvelonyom_vaskut_20180608_napos_kalaszos_T4
+ turkic extract /home/horvathandras/vatic/vatic/public/videouploads/DJI_0691_valto_muvelonyom_vaskut_20180608_napos_kalaszos_T4.avi /home/horvathandras/vatic/vatic/videos/DJI_0691_valto_muvelonyom_vaskut_20180608_napos_kalaszos_T4 --no-resize
ffmpeg version 2.8.14-0ubuntu0.16.04.1 Copyright (c) 2000-2018 the FFmpeg developers
  built with gcc 5.4.0 (Ubuntu 5.4.0-6ubuntu1~16.04.9) 20160609
  configuration: --prefix=/usr --extra-version=0ubuntu0.16.04.1 --build-suffix=-ffmpeg --toolchain=hardened --libdir=/usr/lib/x86_64-linux-gnu --incdir=/usr/include/x86_64-linux-gnu --cc=cc --cxx=g++ --enable-gpl --enable-shared --disable-stripping --disable-decoder=libopenjpeg --disable-decoder=libschroedinger --enable-avresample --enable-avisynth --enable-gnutls --enable-ladspa --enable-libass --enable-libbluray --enable-libbs2b --enable-libcaca --enable-libcdio --enable-libflite --enable-libfontconfig --enable-libfreetype --enable-libfribidi --enable-libgme --enable-libgsm --enable-libmodplug --enable-libmp3lame --enable-libopenjpeg --enable-libopus --enable-libpulse --enable-librtmp --enable-libschroedinger --enable-libshine --enable-libsnappy --enable-libsoxr --enable-libspeex --enable-libssh --enable-libtheora --enable-libtwolame --enable-libvorbis --enable-libvpx --enable-libwavpack --enable-libwebp --enable-libx265 --enable-libxvid --enable-libzvbi --enable-openal --enable-opengl --enable-x11grab --enable-libdc1394 --enable-libiec61883 --enable-libzmq --enable-frei0r --enable-libx264 --enable-libopencv
  libavutil      54. 31.100 / 54. 31.100
  libavcodec     56. 60.100 / 56. 60.100
  libavformat    56. 40.101 / 56. 40.101
  libavdevice    56.  4.100 / 56.  4.100
  libavfilter     5. 40.101 /  5. 40.101
  libavresample   2.  1.  0 /  2.  1.  0
  libswscale      3.  1.101 /  3.  1.101
  libswresample   1.  2.101 /  1.  2.101
  libpostproc    53.  3.100 / 53.  3.100
Input #0, mov,mp4,m4a,3gp,3g2,mj2, from '/home/horvathandras/vatic/vatic/public/videouploads/DJI_0691_valto_muvelonyom_vaskut_20180608_napos_kalaszos_T4.avi':
  Metadata:
    major_brand     : qt  
    minor_version   : 537986816
    compatible_brands: qt  
    creation_time   : 2018-06-08 08:57:08
    location        : +46.069514+18.989444+30.800
    location-{    : +46.069514+18.989444+30.800
    comment         : DE=None, Mode=P, DSW=0001
  Duration: 00:00:13.20, start: 0.000000, bitrate: 101198 kb/s
    Stream #0:0(eng): Video: h264 (High) (avc1 / 0x31637661), yuv420p(tv, bt709), 4096x2160 [SAR 1:1 DAR 256:135], 100907 kb/s, 50 fps, 50 tbr, 50k tbn, 100 tbc (default)
    Metadata:
      creation_time   : 2018-06-08 08:57:08
      handler_name    : DJI.AVC
      encoder         : AVC encoder
    Stream #0:1(eng): Data: none (priv / 0x76697270), 269 kb/s
    Metadata:
      creation_time   : 2018-06-08 08:57:08
      handler_name    : DJI.Meta
Please use -b:a or -b:v, -b is ambiguous
[swscaler @ 0x1e67be0] deprecated pixel format used, make sure you did set range correctly
Output #0, image2, to '/tmp/pyvision-ffmpeg-62112757/%d.jpg':
  Metadata:
    major_brand     : qt  
    minor_version   : 537986816
    compatible_brands: qt  
    comment         : DE=None, Mode=P, DSW=0001
    location        : +46.069514+18.989444+30.800
    location-{    : +46.069514+18.989444+30.800
    encoder         : Lavf56.40.101
    Stream #0:0(eng): Video: mjpeg, yuvj420p(pc), 4096x2160 [SAR 1:1 DAR 256:135], q=2-31, 10000 kb/s, 50 fps, 50 tbn, 50 tbc (default)
    Metadata:
      creation_time   : 2018-06-08 08:57:08
      handler_name    : DJI.AVC
      encoder         : Lavc56.60.100 mjpeg
Stream mapping:
  Stream #0:0 -> #0:0 (h264 (native) -> mjpeg (native))
Press [q] to stop, [?] for help
frame=    1 fps=0.0 q=17.5 size=N/A time=00:00:00.02 bitrate=N/A    frame=    5 fps=4.2 q=24.8 size=N/A time=00:00:00.10 bitrate=N/A    frame=   10 fps=5.6 q=24.8 size=N/A time=00:00:00.20 bitrate=N/A    frame=   15 fps=6.2 q=24.8 size=N/A time=00:00:00.30 bitrate=N/A    frame=   20 fps=6.6 q=24.8 size=N/A time=00:00:00.40 bitrate=N/A    frame=   25 fps=6.9 q=24.8 size=N/A time=00:00:00.50 bitrate=N/A    frame=   29 fps=7.0 q=24.8 size=N/A time=00:00:00.58 bitrate=N/A    frame=   33 fps=7.0 q=24.8 size=N/A time=00:00:00.66 bitrate=N/A    frame=   38 fps=7.1 q=24.8 size=N/A time=00:00:00.76 bitrate=N/A    frame=   43 fps=7.2 q=24.8 size=N/A time=00:00:00.86 bitrate=N/A    frame=   48 fps=7.3 q=24.8 size=N/A time=00:00:00.96 bitrate=N/A    frame=   53 fps=7.4 q=24.8 size=N/A time=00:00:01.06 bitrate=N/A    frame=   58 fps=7.5 q=24.8 size=N/A time=00:00:01.16 bitrate=N/A    frame=   62 fps=7.5 q=24.8 size=N/A time=00:00:01.24 bitrate=N/A    frame=   67 fps=7.5 q=24.8 size=N/A time=00:00:01.34 bitrate=N/A    frame=   72 fps=7.6 q=24.8 size=N/A time=00:00:01.44 bitrate=N/A    frame=   77 fps=7.6 q=24.8 size=N/A time=00:00:01.54 bitrate=N/A    frame=   82 fps=7.6 q=24.8 size=N/A time=00:00:01.64 bitrate=N/A    frame=   86 fps=7.6 q=24.8 size=N/A time=00:00:01.72 bitrate=N/A    frame=   91 fps=7.7 q=24.8 size=N/A time=00:00:01.82 bitrate=N/A    frame=   96 fps=7.7 q=24.8 size=N/A time=00:00:01.92 bitrate=N/A    frame=  101 fps=7.7 q=24.8 size=N/A time=00:00:02.02 bitrate=N/A    frame=  106 fps=7.7 q=24.8 size=N/A time=00:00:02.12 bitrate=N/A    frame=  111 fps=7.8 q=24.8 size=N/A time=00:00:02.22 bitrate=N/A    frame=  116 fps=7.8 q=24.8 size=N/A time=00:00:02.32 bitrate=N/A    frame=  121 fps=7.8 q=24.8 size=N/A time=00:00:02.42 bitrate=N/A    frame=  126 fps=7.8 q=24.8 size=N/A time=00:00:02.52 bitrate=N/A    frame=  131 fps=7.8 q=24.8 size=N/A time=00:00:02.62 bitrate=N/A    frame=  136 fps=7.8 q=24.8 size=N/A time=00:00:02.72 bitrate=N/A    frame=  140 fps=7.8 q=24.8 size=N/A time=00:00:02.80 bitrate=N/A    frame=  145 fps=7.9 q=24.8 size=N/A time=00:00:02.90 bitrate=N/A    frame=  150 fps=7.9 q=24.8 size=N/A time=00:00:03.00 bitrate=N/A    frame=  155 fps=7.9 q=24.8 size=N/A time=00:00:03.10 bitrate=N/A    frame=  160 fps=7.9 q=24.8 size=N/A time=00:00:03.20 bitrate=N/A    frame=  165 fps=7.9 q=24.8 size=N/A time=00:00:03.30 bitrate=N/A    frame=  170 fps=7.9 q=24.8 size=N/A time=00:00:03.40 bitrate=N/A    frame=  174 fps=7.9 q=24.8 size=N/A time=00:00:03.48 bitrate=N/A    frame=  179 fps=7.9 q=24.8 size=N/A time=00:00:03.58 bitrate=N/A    frame=  183 fps=7.9 q=24.8 size=N/A time=00:00:03.66 bitrate=N/A    frame=  188 fps=7.9 q=24.8 size=N/A time=00:00:03.76 bitrate=N/A    frame=  193 fps=7.9 q=24.8 size=N/A time=00:00:03.86 bitrate=N/A    frame=  198 fps=7.9 q=24.8 size=N/A time=00:00:03.96 bitrate=N/A    frame=  203 fps=7.9 q=24.8 size=N/A time=00:00:04.06 bitrate=N/A    frame=  207 fps=7.9 q=24.8 size=N/A time=00:00:04.14 bitrate=N/A    frame=  211 fps=7.9 q=24.8 size=N/A time=00:00:04.22 bitrate=N/A    frame=  216 fps=7.9 q=24.8 size=N/A time=00:00:04.32 bitrate=N/A    frame=  221 fps=7.9 q=24.8 size=N/A time=00:00:04.42 bitrate=N/A    frame=  226 fps=7.9 q=24.8 size=N/A time=00:00:04.52 bitrate=N/A    frame=  231 fps=7.9 q=24.8 size=N/A time=00:00:04.62 bitrate=N/A    frame=  236 fps=7.9 q=24.8 size=N/A time=00:00:04.72 bitrate=N/A    frame=  240 fps=7.9 q=24.8 size=N/A time=00:00:04.80 bitrate=N/A    frame=  245 fps=7.9 q=24.8 size=N/A time=00:00:04.90 bitrate=N/A    frame=  250 fps=7.9 q=24.8 size=N/A time=00:00:05.00 bitrate=N/A    frame=  255 fps=7.9 q=24.8 size=N/A time=00:00:05.10 bitrate=N/A    frame=  259 fps=7.9 q=24.8 size=N/A time=00:00:05.18 bitrate=N/A    frame=  263 fps=7.9 q=24.8 size=N/A time=00:00:05.26 bitrate=N/A    frame=  267 fps=7.9 q=24.8 size=N/A time=00:00:05.34 bitrate=N/A    frame=  271 fps=7.9 q=24.8 size=N/A time=00:00:05.42 bitrate=N/A    frame=  276 fps=7.9 q=24.8 size=N/A time=00:00:05.52 bitrate=N/A    frame=  280 fps=7.9 q=24.8 size=N/A time=00:00:05.60 bitrate=N/A    frame=  284 fps=7.9 q=24.8 size=N/A time=00:00:05.68 bitrate=N/A    frame=  288 fps=7.9 q=24.8 size=N/A time=00:00:05.76 bitrate=N/A    frame=  293 fps=7.9 q=24.8 size=N/A time=00:00:05.86 bitrate=N/A    frame=  298 fps=7.9 q=24.8 size=N/A time=00:00:05.96 bitrate=N/A    frame=  302 fps=7.9 q=24.8 size=N/A time=00:00:06.04 bitrate=N/A    frame=  307 fps=7.9 q=24.8 size=N/A time=00:00:06.14 bitrate=N/A    frame=  312 fps=7.9 q=24.8 size=N/A time=00:00:06.24 bitrate=N/A    frame=  317 fps=7.9 q=24.8 size=N/A time=00:00:06.34 bitrate=N/A    frame=  322 fps=7.9 q=24.8 size=N/A time=00:00:06.44 bitrate=N/A    frame=  327 fps=7.9 q=24.8 size=N/A time=00:00:06.54 bitrate=N/A    frame=  331 fps=7.9 q=24.8 size=N/A time=00:00:06.62 bitrate=N/A    frame=  336 fps=7.9 q=24.8 size=N/A time=00:00:06.72 bitrate=N/A    frame=  341 fps=7.9 q=24.8 size=N/A time=00:00:06.82 bitrate=N/A    frame=  346 fps=7.9 q=24.8 size=N/A time=00:00:06.92 bitrate=N/A    frame=  351 fps=7.9 q=24.8 size=N/A time=00:00:07.02 bitrate=N/A    frame=  356 fps=7.9 q=24.8 size=N/A time=00:00:07.12 bitrate=N/A    frame=  360 fps=7.9 q=24.8 size=N/A time=00:00:07.20 bitrate=N/A    frame=  365 fps=7.9 q=24.8 size=N/A time=00:00:07.30 bitrate=N/A    frame=  370 fps=7.9 q=24.8 size=N/A time=00:00:07.40 bitrate=N/A    frame=  375 fps=7.9 q=24.8 size=N/A time=00:00:07.50 bitrate=N/A    frame=  380 fps=7.9 q=24.8 size=N/A time=00:00:07.60 bitrate=N/A    frame=  385 fps=7.9 q=24.8 size=N/A time=00:00:07.70 bitrate=N/A    frame=  390 fps=7.9 q=24.8 size=N/A time=00:00:07.80 bitrate=N/A    frame=  395 fps=7.9 q=24.8 size=N/A time=00:00:07.90 bitrate=N/A    frame=  400 fps=7.9 q=24.8 size=N/A time=00:00:08.00 bitrate=N/A    frame=  405 fps=7.9 q=24.8 size=N/A time=00:00:08.10 bitrate=N/A    frame=  410 fps=7.9 q=24.8 size=N/A time=00:00:08.20 bitrate=N/A    frame=  415 fps=7.9 q=24.8 size=N/A time=00:00:08.30 bitrate=N/A    frame=  420 fps=7.9 q=24.8 size=N/A time=00:00:08.40 bitrate=N/A    frame=  425 fps=7.9 q=24.8 size=N/A time=00:00:08.50 bitrate=N/A    frame=  430 fps=7.9 q=24.8 size=N/A time=00:00:08.60 bitrate=N/A    frame=  435 fps=7.9 q=24.8 size=N/A time=00:00:08.70 bitrate=N/A    frame=  440 fps=7.9 q=24.8 size=N/A time=00:00:08.80 bitrate=N/A    frame=  445 fps=7.9 q=24.8 size=N/A time=00:00:08.90 bitrate=N/A    frame=  450 fps=7.9 q=24.8 size=N/A time=00:00:09.00 bitrate=N/A    frame=  455 fps=7.9 q=24.8 size=N/A time=00:00:09.10 bitrate=N/A    frame=  460 fps=7.9 q=24.8 size=N/A time=00:00:09.20 bitrate=N/A    frame=  465 fps=7.9 q=24.8 size=N/A time=00:00:09.30 bitrate=N/A    frame=  469 fps=8.0 q=24.8 size=N/A time=00:00:09.38 bitrate=N/A    frame=  473 fps=8.0 q=24.8 size=N/A time=00:00:09.46 bitrate=N/A    frame=  477 fps=7.9 q=24.8 size=N/A time=00:00:09.54 bitrate=N/A    frame=  481 fps=7.9 q=24.8 size=N/A time=00:00:09.62 bitrate=N/A    frame=  485 fps=7.9 q=24.8 size=N/A time=00:00:09.70 bitrate=N/A    frame=  490 fps=7.9 q=24.8 size=N/A time=00:00:09.80 bitrate=N/A    frame=  495 fps=7.9 q=24.8 size=N/A time=00:00:09.90 bitrate=N/A    frame=  500 fps=7.9 q=24.8 size=N/A time=00:00:10.00 bitrate=N/A    frame=  505 fps=7.9 q=24.8 size=N/A time=00:00:10.10 bitrate=N/A    frame=  510 fps=7.9 q=24.8 size=N/A time=00:00:10.20 bitrate=N/A    frame=  515 fps=8.0 q=24.8 size=N/A time=00:00:10.30 bitrate=N/A    frame=  520 fps=8.0 q=24.8 size=N/A time=00:00:10.40 bitrate=N/A    frame=  525 fps=8.0 q=24.8 size=N/A time=00:00:10.50 bitrate=N/A    frame=  530 fps=8.0 q=24.8 size=N/A time=00:00:10.60 bitrate=N/A    frame=  535 fps=8.0 q=24.8 size=N/A time=00:00:10.70 bitrate=N/A    frame=  540 fps=8.0 q=24.8 size=N/A time=00:00:10.80 bitrate=N/A    frame=  545 fps=8.0 q=24.8 size=N/A time=00:00:10.90 bitrate=N/A    frame=  550 fps=8.0 q=24.8 size=N/A time=00:00:11.00 bitrate=N/A    frame=  555 fps=8.0 q=24.8 size=N/A time=00:00:11.10 bitrate=N/A    frame=  560 fps=8.0 q=24.8 size=N/A time=00:00:11.20 bitrate=N/A    frame=  565 fps=8.0 q=24.8 size=N/A time=00:00:11.30 bitrate=N/A    frame=  570 fps=8.0 q=24.8 size=N/A time=00:00:11.40 bitrate=N/A    frame=  575 fps=8.0 q=24.8 size=N/A time=00:00:11.50 bitrate=N/A    frame=  580 fps=8.0 q=24.8 size=N/A time=00:00:11.60 bitrate=N/A    frame=  585 fps=8.0 q=24.8 size=N/A time=00:00:11.70 bitrate=N/A    frame=  590 fps=8.0 q=24.8 size=N/A time=00:00:11.80 bitrate=N/A    frame=  595 fps=8.0 q=24.8 size=N/A time=00:00:11.90 bitrate=N/A    frame=  600 fps=8.0 q=24.8 size=N/A time=00:00:12.00 bitrate=N/A    frame=  605 fps=8.0 q=24.8 size=N/A time=00:00:12.10 bitrate=N/A    frame=  610 fps=8.0 q=24.8 size=N/A time=00:00:12.20 bitrate=N/A    frame=  615 fps=8.0 q=24.8 size=N/A time=00:00:12.30 bitrate=N/A    frame=  620 fps=8.0 q=24.8 size=N/A time=00:00:12.40 bitrate=N/A    frame=  625 fps=8.0 q=24.8 size=N/A time=00:00:12.50 bitrate=N/A    frame=  629 fps=8.0 q=24.8 size=N/A time=00:00:12.58 bitrate=N/A    frame=  634 fps=8.0 q=24.8 size=N/A time=00:00:12.68 bitrate=N/A    frame=  639 fps=8.0 q=24.8 size=N/A time=00:00:12.78 bitrate=N/A    frame=  644 fps=8.0 q=24.8 size=N/A time=00:00:12.88 bitrate=N/A    frame=  649 fps=8.0 q=24.8 size=N/A time=00:00:12.98 bitrate=N/A    frame=  654 fps=8.0 q=24.8 size=N/A time=00:00:13.08 bitrate=N/A    frame=  659 fps=8.1 q=24.8 size=N/A time=00:00:13.18 bitrate=N/A    frame=  660 fps=8.0 q=24.8 Lsize=N/A time=00:00:13.20 bitrate=N/A    
video:559716kB audio:0kB subtitle:0kB other streams:0kB global headers:0kB muxing overhead: unknown
+ turkic load DJI_0691_valto_muvelonyom_vaskut_20180608_napos_kalaszos_T4 /home/horvathandras/vatic/vatic/videos/DJI_0691_valto_muvelonyom_vaskut_20180608_napos_kalaszos_T4 $'Pozit\303\255vROI' $'Negat\303\255vROI' $'T\303\272r\303\241s' '~Friss' '~1-2Hetes' '~Régebbi' '~Egyéb1' '~Egyéb2' '~Egyéb3' $'R\303\241g\303\241s' '~Friss' '~1-2Hetes' '~Régebbi' '~Egyéb1' '~Egyéb2' '~Egyéb3' $'T\303\266r\303\251s' '~Friss' '~1-2Hetes' '~Régebbi' '~Egyéb1' '~Egyéb2' '~Egyéb3' $'Tapos\303\241s' '~Friss' '~1-2Hetes' '~Régebbi' '~Egyéb1' '~Egyéb2' '~Egyéb3' $'Eg\303\251szs\303\251gesN\303\266v\303\251ny' $'Egy\303\251b1' $'Egy\303\251b2' $'Egy\303\251b3' $'Egy\303\251b4' $'Egy\303\251b5' Bizonytalan $'M\305\261vel\305\221\303\272t' $'Gktapos\303\241s' $'Vet\305\221hiba' $'Sz\303\251ld\303\266nt\303\251s' $'J\303\251gk\303\241r' $'Belv\303\255z' $'Asz\303\241ly' $'Er\303\263zi\303\263' $'Egyszik\305\261Gyom' $'K\303\251tszik\305\261Gyom' $'Egy\303\251bN\303\266vv\303\251delmiPR' --offline --title '$filenameNoDot Video' --length 1000 --description 'vatic annotation'
+ turkic publish --offline
+ mkdir /home/horvathandras/vatic/vatic/public/videothumbnails/DJI_0691_valto_muvelonyom_vaskut_20180608_napos_kalaszos_T4
+ cp /home/horvathandras/vatic/vatic/videos/DJI_0691_valto_muvelonyom_vaskut_20180608_napos_kalaszos_T4/0/0/31.jpg /home/horvathandras/vatic/vatic/public/videothumbnails/DJI_0691_valto_muvelonyom_vaskut_20180608_napos_kalaszos_T4/thumb.jpg
